G75*
%MOIN*%
%OFA0B0*%
%FSLAX25Y25*%
%IPPOS*%
%LPD*%
%AMOC8*
5,1,8,0,0,1.08239X$1,22.5*
%
%ADD10C,0.00000*%
%ADD11R,0.04724X0.01181*%
%ADD12OC8,0.05600*%
%ADD13C,0.05600*%
%ADD14C,0.01000*%
%ADD15C,0.04000*%
D10*
X0001197Y0001315D02*
X0001000Y0314701D01*
X0396591Y0316827D01*
X0396157Y0001000D01*
X0001197Y0001315D01*
D11*
X0123834Y0097398D03*
X0123834Y0099957D03*
X0123834Y0102516D03*
X0123834Y0105075D03*
X0123834Y0107634D03*
X0123834Y0110193D03*
X0123834Y0112752D03*
X0123834Y0115311D03*
X0123834Y0117870D03*
X0123834Y0120429D03*
X0146669Y0120429D03*
X0146669Y0117870D03*
X0146669Y0115311D03*
X0146669Y0112752D03*
X0146669Y0110193D03*
X0146669Y0107634D03*
X0146669Y0105075D03*
X0146669Y0102516D03*
X0146669Y0099957D03*
X0146669Y0097398D03*
X0225724Y0097516D03*
X0225724Y0100075D03*
X0225724Y0102634D03*
X0225724Y0105193D03*
X0225724Y0107752D03*
X0225724Y0110311D03*
X0225724Y0112870D03*
X0225724Y0115429D03*
X0225724Y0117988D03*
X0225724Y0120547D03*
X0248559Y0120547D03*
X0248559Y0117988D03*
X0248559Y0115429D03*
X0248559Y0112870D03*
X0248559Y0110311D03*
X0248559Y0107752D03*
X0248559Y0105193D03*
X0248559Y0102634D03*
X0248559Y0100075D03*
X0248559Y0097516D03*
X0248165Y0171178D03*
X0248165Y0173736D03*
X0248165Y0176295D03*
X0248165Y0178854D03*
X0248165Y0181413D03*
X0248165Y0183972D03*
X0248165Y0186531D03*
X0248165Y0189091D03*
X0248165Y0191649D03*
X0248165Y0194208D03*
X0225330Y0194208D03*
X0225330Y0191649D03*
X0225330Y0189091D03*
X0225330Y0186531D03*
X0225330Y0183972D03*
X0225330Y0181413D03*
X0225330Y0178854D03*
X0225330Y0176295D03*
X0225330Y0173736D03*
X0225330Y0171178D03*
X0146827Y0171571D03*
X0146827Y0174130D03*
X0146827Y0176689D03*
X0146827Y0179248D03*
X0146827Y0181807D03*
X0146827Y0184366D03*
X0146827Y0186925D03*
X0146827Y0189484D03*
X0146827Y0192043D03*
X0146827Y0194602D03*
X0123992Y0194602D03*
X0123992Y0192043D03*
X0123992Y0189484D03*
X0123992Y0186925D03*
X0123992Y0184366D03*
X0123992Y0181807D03*
X0123992Y0179248D03*
X0123992Y0176689D03*
X0123992Y0174130D03*
X0123992Y0171571D03*
X0123992Y0260744D03*
X0123992Y0263303D03*
X0123992Y0265862D03*
X0123992Y0268421D03*
X0123992Y0270980D03*
X0123992Y0273539D03*
X0123992Y0276098D03*
X0123992Y0278657D03*
X0123992Y0281216D03*
X0123992Y0283775D03*
X0146827Y0283775D03*
X0146827Y0281216D03*
X0146827Y0278657D03*
X0146827Y0276098D03*
X0146827Y0273539D03*
X0146827Y0270980D03*
X0146827Y0268421D03*
X0146827Y0265862D03*
X0146827Y0263303D03*
X0146827Y0260744D03*
X0225094Y0260784D03*
X0225094Y0263343D03*
X0225094Y0265902D03*
X0225094Y0268461D03*
X0225094Y0271020D03*
X0225094Y0273579D03*
X0225094Y0276138D03*
X0225094Y0278697D03*
X0225094Y0281256D03*
X0225094Y0283815D03*
X0247929Y0283815D03*
X0247929Y0281256D03*
X0247929Y0278697D03*
X0247929Y0276138D03*
X0247929Y0273579D03*
X0247929Y0271020D03*
X0247929Y0268461D03*
X0247929Y0265902D03*
X0247929Y0263343D03*
X0247929Y0260784D03*
D12*
X0337299Y0262417D03*
X0337299Y0252417D03*
X0347299Y0252417D03*
X0347299Y0262417D03*
X0347299Y0272417D03*
X0337299Y0272417D03*
X0337299Y0282417D03*
X0347299Y0282417D03*
X0347299Y0292417D03*
X0337299Y0292417D03*
X0337850Y0219268D03*
X0337850Y0209268D03*
X0337850Y0199268D03*
X0337850Y0189268D03*
X0337850Y0179268D03*
X0347850Y0179268D03*
X0347850Y0189268D03*
X0347850Y0199268D03*
X0347850Y0209268D03*
X0347850Y0219268D03*
X0348323Y0144110D03*
X0338323Y0144110D03*
X0338323Y0134110D03*
X0348323Y0134110D03*
X0348323Y0124110D03*
X0338323Y0124110D03*
X0338323Y0114110D03*
X0348323Y0114110D03*
X0348323Y0104110D03*
X0338323Y0104110D03*
X0339031Y0066394D03*
X0349031Y0066394D03*
X0349031Y0056394D03*
X0339031Y0056394D03*
X0339031Y0046394D03*
X0349031Y0046394D03*
X0349031Y0036394D03*
X0339031Y0036394D03*
X0339031Y0026394D03*
X0349031Y0026394D03*
X0038362Y0083362D03*
X0028362Y0083362D03*
X0028362Y0093362D03*
X0038362Y0093362D03*
X0038362Y0103362D03*
X0028362Y0103362D03*
X0028362Y0113362D03*
X0038362Y0113362D03*
X0038362Y0123362D03*
X0028362Y0123362D03*
X0027811Y0169465D03*
X0027811Y0179465D03*
X0027811Y0189465D03*
X0027811Y0199465D03*
X0027811Y0209465D03*
X0037811Y0209465D03*
X0037811Y0199465D03*
X0037811Y0189465D03*
X0037811Y0179465D03*
X0037811Y0169465D03*
D13*
X0164622Y0074312D02*
X0164622Y0068712D01*
X0174622Y0068712D02*
X0174622Y0074312D01*
X0174465Y0054706D02*
X0174465Y0049106D01*
X0164465Y0049106D02*
X0164465Y0054706D01*
X0164307Y0036320D02*
X0164307Y0030720D01*
X0174307Y0030720D02*
X0174307Y0036320D01*
X0187693Y0018564D02*
X0187693Y0012964D01*
X0197693Y0012964D02*
X0197693Y0018564D01*
X0209189Y0031665D02*
X0209189Y0037265D01*
X0219189Y0037265D02*
X0219189Y0031665D01*
X0219583Y0049972D02*
X0219583Y0055572D01*
X0209583Y0055572D02*
X0209583Y0049972D01*
X0209465Y0068594D02*
X0209465Y0074194D01*
X0219465Y0074194D02*
X0219465Y0068594D01*
D14*
X0219465Y0071394D02*
X0220291Y0072252D01*
X0237391Y0089352D01*
X0237391Y0104652D01*
X0245491Y0112752D01*
X0248191Y0112752D01*
X0248559Y0112870D01*
X0248559Y0110311D02*
X0248191Y0110052D01*
X0245491Y0110052D01*
X0239191Y0103752D01*
X0239191Y0082152D01*
X0221191Y0064152D01*
X0216691Y0064152D01*
X0209491Y0071352D01*
X0209465Y0071394D01*
X0187891Y0057852D02*
X0182491Y0052452D01*
X0178891Y0054252D02*
X0178891Y0047052D01*
X0176191Y0044352D01*
X0060991Y0044352D01*
X0022291Y0083052D01*
X0022291Y0103752D01*
X0027691Y0109152D01*
X0030391Y0109152D01*
X0033991Y0112752D01*
X0033991Y0119052D01*
X0037591Y0122652D01*
X0038362Y0123362D01*
X0048391Y0121752D02*
X0033091Y0137052D01*
X0033091Y0181152D01*
X0036691Y0184752D01*
X0108691Y0184752D01*
X0108691Y0273852D01*
X0121291Y0286452D01*
X0126691Y0286452D01*
X0128491Y0284652D01*
X0128491Y0276552D01*
X0124891Y0276552D01*
X0123992Y0276098D01*
X0123991Y0278352D02*
X0121291Y0278352D01*
X0117691Y0274752D01*
X0117691Y0254952D01*
X0128491Y0244152D01*
X0128491Y0191052D01*
X0126691Y0189252D01*
X0124891Y0189252D01*
X0123992Y0189484D01*
X0123991Y0191952D02*
X0123992Y0192043D01*
X0123991Y0191952D02*
X0112291Y0191952D01*
X0118591Y0195552D02*
X0123991Y0195552D01*
X0123991Y0194652D01*
X0123992Y0194602D01*
X0123991Y0195552D02*
X0123991Y0245952D01*
X0112291Y0257652D01*
X0112291Y0274752D01*
X0121291Y0283752D01*
X0123991Y0283752D01*
X0123992Y0283775D01*
X0123992Y0278657D02*
X0123991Y0278352D01*
X0128491Y0276552D02*
X0133891Y0276552D01*
X0143791Y0286452D01*
X0202291Y0286452D01*
X0213991Y0274752D01*
X0212191Y0272952D01*
X0212191Y0269352D01*
X0213991Y0274752D02*
X0221191Y0274752D01*
X0222091Y0275652D01*
X0224791Y0275652D01*
X0225094Y0276138D01*
X0224791Y0278352D02*
X0225094Y0278697D01*
X0224791Y0278352D02*
X0215791Y0278352D01*
X0219391Y0281952D02*
X0221191Y0283752D01*
X0224791Y0283752D01*
X0225094Y0283815D01*
X0225094Y0281256D02*
X0225691Y0281052D01*
X0233791Y0281052D01*
X0232891Y0287352D02*
X0240991Y0279252D01*
X0240991Y0274752D01*
X0240991Y0279252D02*
X0245491Y0283752D01*
X0247291Y0283752D01*
X0247929Y0283815D01*
X0248191Y0276552D02*
X0247929Y0276138D01*
X0248191Y0276552D02*
X0325591Y0276552D01*
X0336391Y0287352D01*
X0348991Y0287352D01*
X0372391Y0263952D01*
X0372391Y0040752D01*
X0348091Y0016452D01*
X0218491Y0016452D01*
X0204991Y0029952D01*
X0204991Y0038952D01*
X0207691Y0041652D01*
X0212191Y0041652D01*
X0218491Y0035352D01*
X0219189Y0034465D01*
X0209491Y0034452D02*
X0209189Y0034465D01*
X0209491Y0034452D02*
X0225691Y0018252D01*
X0347191Y0018252D01*
X0370591Y0041652D01*
X0370591Y0254952D01*
X0348991Y0276552D01*
X0335491Y0276552D01*
X0332791Y0273852D01*
X0248191Y0273852D01*
X0247929Y0273579D01*
X0248191Y0271152D02*
X0247929Y0271020D01*
X0248191Y0271152D02*
X0269791Y0271152D01*
X0274291Y0266652D01*
X0248191Y0263052D02*
X0247929Y0263343D01*
X0248191Y0263052D02*
X0331891Y0263052D01*
X0336391Y0267552D01*
X0342691Y0267552D01*
X0347191Y0272052D01*
X0347299Y0272417D01*
X0347299Y0262417D02*
X0347191Y0262152D01*
X0342691Y0257652D01*
X0336391Y0257652D01*
X0332791Y0254052D01*
X0332791Y0243252D01*
X0352591Y0223452D01*
X0352591Y0187452D01*
X0349891Y0184752D01*
X0337291Y0184752D01*
X0334591Y0182052D01*
X0307591Y0182052D01*
X0299491Y0190152D01*
X0299491Y0196452D01*
X0290491Y0205452D01*
X0290491Y0219852D01*
X0284191Y0226152D01*
X0265291Y0226152D01*
X0231091Y0260352D01*
X0225691Y0260352D01*
X0225094Y0260784D01*
X0224791Y0263052D02*
X0225094Y0263343D01*
X0224791Y0263052D02*
X0222091Y0263052D01*
X0221191Y0262152D01*
X0221191Y0259452D01*
X0264391Y0216252D01*
X0270691Y0216252D01*
X0312091Y0174852D01*
X0349891Y0174852D01*
X0354391Y0179352D01*
X0354391Y0236052D01*
X0338191Y0252252D01*
X0337299Y0252417D01*
X0335491Y0260352D02*
X0337291Y0262152D01*
X0337299Y0262417D01*
X0335491Y0260352D02*
X0248191Y0260352D01*
X0247929Y0260784D01*
X0243691Y0259452D02*
X0273391Y0229752D01*
X0301291Y0229752D01*
X0337291Y0193752D01*
X0343591Y0193752D01*
X0347191Y0190152D01*
X0347850Y0189268D01*
X0337850Y0189268D02*
X0337291Y0190152D01*
X0299491Y0227952D01*
X0272491Y0227952D01*
X0241891Y0258552D01*
X0241891Y0264852D01*
X0245491Y0268452D01*
X0247291Y0268452D01*
X0247929Y0268461D01*
X0247929Y0265902D02*
X0247291Y0265752D01*
X0245491Y0265752D01*
X0243691Y0263952D01*
X0243691Y0259452D01*
X0234691Y0263952D02*
X0227491Y0271152D01*
X0225691Y0271152D01*
X0225094Y0271020D01*
X0225094Y0273579D02*
X0225691Y0273852D01*
X0234691Y0273852D01*
X0225094Y0268461D02*
X0224791Y0268452D01*
X0222091Y0268452D01*
X0216691Y0263052D01*
X0147391Y0263052D01*
X0146827Y0263303D01*
X0146827Y0260744D02*
X0147391Y0260352D01*
X0147391Y0250452D01*
X0218491Y0179352D01*
X0224791Y0179352D01*
X0225330Y0178854D01*
X0225691Y0181152D02*
X0225330Y0181413D01*
X0225691Y0181152D02*
X0227491Y0181152D01*
X0234691Y0188352D01*
X0232891Y0191952D02*
X0240091Y0199152D01*
X0240091Y0200952D01*
X0242791Y0203652D01*
X0268891Y0203652D01*
X0320191Y0152352D01*
X0348991Y0152352D01*
X0356191Y0145152D01*
X0356191Y0089352D01*
X0334591Y0067752D01*
X0334591Y0030852D01*
X0338191Y0027252D01*
X0339031Y0026394D01*
X0340891Y0021852D02*
X0344491Y0025452D01*
X0344491Y0038052D01*
X0348091Y0041652D01*
X0350791Y0041652D01*
X0353491Y0044352D01*
X0353491Y0062352D01*
X0349891Y0065952D01*
X0349031Y0066394D01*
X0343591Y0066852D02*
X0343591Y0041652D01*
X0339091Y0037152D01*
X0339031Y0036394D01*
X0349031Y0026394D02*
X0348991Y0026352D01*
X0342691Y0020052D01*
X0315691Y0020052D01*
X0253591Y0082152D01*
X0250891Y0082152D01*
X0249091Y0097452D02*
X0248559Y0097516D01*
X0249091Y0097452D02*
X0274291Y0097452D01*
X0275191Y0096552D01*
X0337291Y0096552D01*
X0342691Y0101952D01*
X0342691Y0105552D01*
X0339091Y0109152D01*
X0337291Y0109152D01*
X0333691Y0112752D01*
X0333691Y0115452D01*
X0338191Y0119952D01*
X0339991Y0119952D01*
X0343591Y0123552D01*
X0343591Y0128952D01*
X0348091Y0133452D01*
X0348323Y0134110D01*
X0352591Y0136152D02*
X0349891Y0138852D01*
X0347191Y0138852D01*
X0343591Y0135252D01*
X0343591Y0133452D01*
X0339091Y0128952D01*
X0312991Y0128952D01*
X0295891Y0146052D01*
X0234691Y0146052D01*
X0208591Y0119952D01*
X0208591Y0106452D01*
X0217591Y0097452D01*
X0225691Y0097452D01*
X0225724Y0097516D01*
X0225724Y0100075D02*
X0225691Y0100152D01*
X0217591Y0100152D01*
X0213091Y0104652D01*
X0213091Y0115452D01*
X0223891Y0126252D01*
X0286891Y0126252D01*
X0296791Y0116352D01*
X0321091Y0116352D01*
X0322891Y0119952D02*
X0338191Y0104652D01*
X0338323Y0104110D01*
X0338323Y0114110D02*
X0339091Y0114552D01*
X0343591Y0119052D01*
X0349891Y0119052D01*
X0354391Y0123552D01*
X0354391Y0144252D01*
X0348091Y0150552D01*
X0319291Y0150552D01*
X0267991Y0201852D01*
X0243691Y0201852D01*
X0241891Y0200052D01*
X0241891Y0187452D01*
X0228391Y0173952D01*
X0225691Y0173952D01*
X0225330Y0173736D01*
X0224791Y0175752D02*
X0222091Y0175752D01*
X0221191Y0174852D01*
X0221191Y0164952D01*
X0236491Y0149652D01*
X0247291Y0149652D02*
X0225691Y0171252D01*
X0225330Y0171178D01*
X0224791Y0175752D02*
X0225330Y0176295D01*
X0224791Y0183852D02*
X0222091Y0183852D01*
X0221191Y0182952D01*
X0217591Y0182952D01*
X0215791Y0184752D01*
X0215791Y0193752D01*
X0243691Y0221652D01*
X0253591Y0221652D01*
X0321091Y0154152D01*
X0349891Y0154152D01*
X0357991Y0146052D01*
X0357991Y0081252D01*
X0343591Y0066852D01*
X0330991Y0057852D02*
X0283291Y0057852D01*
X0244591Y0096552D01*
X0244591Y0101052D01*
X0246391Y0102852D01*
X0248191Y0102852D01*
X0248559Y0102634D01*
X0249091Y0104652D02*
X0248559Y0105193D01*
X0249091Y0104652D02*
X0261691Y0104652D01*
X0249091Y0100152D02*
X0248559Y0100075D01*
X0249091Y0100152D02*
X0276991Y0100152D01*
X0295891Y0119952D02*
X0322891Y0119952D01*
X0329191Y0108252D02*
X0302191Y0108252D01*
X0285991Y0124452D01*
X0224791Y0124452D01*
X0214891Y0114552D01*
X0214891Y0105552D01*
X0217591Y0102852D01*
X0225691Y0102852D01*
X0225724Y0102634D01*
X0226591Y0104652D02*
X0225724Y0105193D01*
X0226591Y0104652D02*
X0229291Y0104652D01*
X0230191Y0103752D01*
X0230191Y0096552D01*
X0228391Y0094752D01*
X0217591Y0094752D01*
X0189691Y0122652D01*
X0189691Y0191952D01*
X0143791Y0237852D01*
X0132991Y0242352D02*
X0132991Y0184752D01*
X0130291Y0182052D01*
X0124891Y0182052D01*
X0123992Y0181807D01*
X0123991Y0182052D01*
X0121291Y0182052D01*
X0118591Y0179352D01*
X0123992Y0179248D02*
X0124891Y0179352D01*
X0130291Y0179352D01*
X0136591Y0185652D01*
X0136591Y0256752D01*
X0127591Y0265752D01*
X0124891Y0265752D01*
X0123992Y0265862D01*
X0123992Y0263303D02*
X0124891Y0263052D01*
X0127591Y0263052D01*
X0132991Y0257652D01*
X0132991Y0254052D01*
X0128491Y0256752D02*
X0124891Y0260352D01*
X0123992Y0260744D01*
X0119491Y0255852D02*
X0132991Y0242352D01*
X0119491Y0255852D02*
X0119491Y0269352D01*
X0121291Y0271152D01*
X0123991Y0271152D01*
X0123992Y0270980D01*
X0124891Y0271152D01*
X0127591Y0271152D01*
X0129391Y0272952D01*
X0140191Y0280152D02*
X0140191Y0198252D01*
X0143791Y0194652D01*
X0146491Y0194652D01*
X0146827Y0194602D01*
X0143791Y0194652D02*
X0142891Y0193752D01*
X0142891Y0189252D01*
X0136591Y0182952D01*
X0136591Y0169452D01*
X0146491Y0159552D01*
X0146491Y0120852D01*
X0146669Y0120429D01*
X0147391Y0119952D01*
X0165391Y0119952D01*
X0180691Y0104652D01*
X0180691Y0065952D01*
X0178891Y0064152D01*
X0178891Y0059652D01*
X0182491Y0057852D02*
X0178891Y0054252D01*
X0182491Y0057852D02*
X0182491Y0156852D01*
X0157291Y0182052D01*
X0147391Y0182052D01*
X0146827Y0181807D01*
X0147391Y0179352D02*
X0146827Y0179248D01*
X0147391Y0179352D02*
X0152791Y0179352D01*
X0156391Y0175752D01*
X0156391Y0172152D01*
X0150091Y0165852D01*
X0145591Y0165852D01*
X0146491Y0171252D02*
X0140191Y0171252D01*
X0146491Y0171252D02*
X0146827Y0171571D01*
X0147391Y0173952D02*
X0146827Y0174130D01*
X0147391Y0173952D02*
X0152791Y0173952D01*
X0146827Y0176689D02*
X0146491Y0176652D01*
X0140191Y0176652D01*
X0134791Y0171252D02*
X0134791Y0152352D01*
X0114091Y0131652D01*
X0076291Y0131652D01*
X0064591Y0125352D02*
X0060991Y0121752D01*
X0048391Y0121752D01*
X0049291Y0118152D02*
X0039391Y0108252D01*
X0036691Y0108252D01*
X0033091Y0104652D01*
X0033091Y0101952D01*
X0029491Y0098352D01*
X0026791Y0098352D01*
X0024091Y0095652D01*
X0024091Y0087552D01*
X0027691Y0083952D01*
X0028362Y0083362D01*
X0032191Y0088452D02*
X0128491Y0088452D01*
X0141991Y0101952D01*
X0146491Y0101952D01*
X0146669Y0102516D01*
X0146491Y0104652D02*
X0146669Y0105075D01*
X0146491Y0104652D02*
X0141991Y0104652D01*
X0128491Y0091152D01*
X0046591Y0091152D01*
X0044791Y0092952D01*
X0039391Y0098352D02*
X0033091Y0098352D01*
X0028591Y0093852D01*
X0028362Y0093362D01*
X0039391Y0098352D02*
X0057391Y0116352D01*
X0102391Y0116352D01*
X0108691Y0110052D01*
X0123091Y0110052D01*
X0123834Y0110193D01*
X0123834Y0112752D02*
X0126691Y0112752D01*
X0127591Y0113652D01*
X0127591Y0121752D01*
X0123991Y0125352D01*
X0064591Y0125352D01*
X0059191Y0125352D02*
X0078991Y0145152D01*
X0110491Y0145152D01*
X0131191Y0165852D01*
X0131191Y0169452D01*
X0134791Y0171252D02*
X0129391Y0176652D01*
X0124891Y0176652D01*
X0123992Y0176689D01*
X0123992Y0174130D02*
X0123991Y0173952D01*
X0116791Y0173952D01*
X0108691Y0182052D01*
X0040291Y0182052D01*
X0038491Y0180252D01*
X0037811Y0179465D01*
X0049291Y0178452D02*
X0109591Y0178452D01*
X0116791Y0171252D01*
X0123991Y0171252D01*
X0123992Y0171571D01*
X0120391Y0167652D02*
X0117691Y0167652D01*
X0110491Y0174852D01*
X0060091Y0174852D01*
X0083491Y0164052D02*
X0123991Y0164052D01*
X0120391Y0160452D02*
X0085291Y0160452D01*
X0050191Y0125352D01*
X0049291Y0118152D02*
X0123091Y0118152D01*
X0123834Y0117870D01*
X0123091Y0115452D02*
X0123834Y0115311D01*
X0123091Y0115452D02*
X0115891Y0115452D01*
X0114991Y0114552D01*
X0112291Y0120852D02*
X0111391Y0121752D01*
X0112291Y0120852D02*
X0123091Y0120852D01*
X0123834Y0120429D01*
X0123834Y0107634D02*
X0123091Y0107352D01*
X0119491Y0107352D01*
X0118591Y0106452D01*
X0123834Y0105075D02*
X0123991Y0105552D01*
X0126691Y0105552D01*
X0142891Y0121752D01*
X0142891Y0157752D01*
X0163591Y0181152D02*
X0159991Y0184752D01*
X0147391Y0184752D01*
X0146827Y0184366D01*
X0146827Y0186925D02*
X0147391Y0187452D01*
X0162691Y0187452D01*
X0187891Y0162252D01*
X0187891Y0057852D01*
X0178891Y0066852D02*
X0164491Y0052452D01*
X0164465Y0051906D01*
X0159991Y0061452D02*
X0159991Y0100152D01*
X0150091Y0110052D01*
X0147391Y0110052D01*
X0146669Y0110193D01*
X0146669Y0112752D02*
X0150091Y0112752D01*
X0163591Y0099252D01*
X0163591Y0080352D01*
X0167191Y0074052D02*
X0165391Y0072252D01*
X0164622Y0071512D01*
X0167191Y0074052D02*
X0167191Y0101952D01*
X0172591Y0101952D02*
X0172591Y0074052D01*
X0174391Y0072252D01*
X0174622Y0071512D01*
X0178891Y0066852D02*
X0178891Y0101052D01*
X0163591Y0116352D01*
X0146669Y0107634D02*
X0146491Y0107352D01*
X0141991Y0107352D01*
X0127591Y0092952D01*
X0096991Y0092952D01*
X0077191Y0112752D01*
X0082591Y0112752D02*
X0100591Y0094752D01*
X0126691Y0094752D01*
X0127591Y0095652D01*
X0127591Y0101052D01*
X0126691Y0101952D01*
X0123991Y0101952D01*
X0123834Y0102516D01*
X0123091Y0100152D02*
X0123834Y0099957D01*
X0123091Y0100152D02*
X0113191Y0100152D01*
X0100591Y0112752D01*
X0087991Y0112752D02*
X0103291Y0097452D01*
X0123091Y0097452D01*
X0123834Y0097398D01*
X0131191Y0076752D02*
X0146491Y0092052D01*
X0146491Y0097452D01*
X0146669Y0097398D01*
X0146669Y0099957D02*
X0147391Y0100152D01*
X0149191Y0100152D01*
X0150991Y0098352D01*
X0150991Y0093852D01*
X0150091Y0092952D01*
X0131191Y0076752D02*
X0036691Y0076752D01*
X0108691Y0184752D02*
X0119491Y0184752D01*
X0121291Y0186552D01*
X0123991Y0186552D01*
X0123992Y0186925D01*
X0126691Y0189252D02*
X0129391Y0186552D01*
X0219391Y0186552D02*
X0224791Y0186552D01*
X0225330Y0186531D01*
X0225330Y0183972D02*
X0224791Y0183852D01*
X0225330Y0189091D02*
X0224791Y0189252D01*
X0222091Y0189252D01*
X0219391Y0191952D01*
X0225330Y0191649D02*
X0225691Y0191952D01*
X0232891Y0191952D01*
X0230191Y0194652D02*
X0231091Y0195552D01*
X0230191Y0194652D02*
X0225691Y0194652D01*
X0225330Y0194208D01*
X0245491Y0196452D02*
X0247291Y0194652D01*
X0248165Y0194208D01*
X0245491Y0196452D02*
X0245491Y0198252D01*
X0248191Y0186552D02*
X0248165Y0186531D01*
X0248191Y0186552D02*
X0251791Y0186552D01*
X0253591Y0184752D01*
X0248165Y0183972D02*
X0247291Y0183852D01*
X0245491Y0183852D01*
X0242791Y0181152D01*
X0245491Y0178452D02*
X0243691Y0176652D01*
X0243691Y0170352D01*
X0266191Y0147852D01*
X0299491Y0147852D01*
X0314791Y0132552D01*
X0309391Y0143352D02*
X0338191Y0143352D01*
X0338323Y0144110D01*
X0342691Y0146052D02*
X0339991Y0148752D01*
X0336391Y0148752D01*
X0332791Y0145152D01*
X0310291Y0145152D01*
X0281491Y0173952D01*
X0248191Y0173952D01*
X0248165Y0173736D01*
X0248191Y0171252D02*
X0248165Y0171178D01*
X0248191Y0171252D02*
X0281491Y0171252D01*
X0309391Y0143352D01*
X0291391Y0127152D02*
X0335491Y0127152D01*
X0338191Y0124452D01*
X0338323Y0124110D01*
X0348323Y0124110D02*
X0348991Y0124452D01*
X0352591Y0128052D01*
X0352591Y0136152D01*
X0342691Y0137952D02*
X0339091Y0134352D01*
X0338323Y0134110D01*
X0342691Y0137952D02*
X0342691Y0146052D01*
X0350791Y0173052D02*
X0356191Y0178452D01*
X0356191Y0244152D01*
X0348091Y0252252D01*
X0347299Y0252417D01*
X0257191Y0181152D02*
X0248191Y0181152D01*
X0248165Y0181413D01*
X0248165Y0178854D02*
X0247291Y0178452D01*
X0245491Y0178452D01*
X0248191Y0176652D02*
X0248165Y0176295D01*
X0248191Y0176652D02*
X0287791Y0176652D01*
X0304891Y0173052D02*
X0350791Y0173052D01*
X0304891Y0173052D02*
X0219391Y0258552D01*
X0219391Y0263052D01*
X0222091Y0265752D01*
X0224791Y0265752D01*
X0225094Y0265902D01*
X0161791Y0266652D02*
X0152791Y0275652D01*
X0147391Y0275652D01*
X0146827Y0276098D01*
X0146827Y0273539D02*
X0147391Y0272952D01*
X0150091Y0272952D01*
X0156391Y0266652D01*
X0152791Y0281952D02*
X0150991Y0281952D01*
X0149191Y0283752D01*
X0147391Y0283752D01*
X0146827Y0283775D01*
X0146491Y0283752D01*
X0143791Y0283752D01*
X0140191Y0280152D01*
X0249091Y0142452D02*
X0276091Y0142452D01*
X0291391Y0127152D01*
X0295891Y0119952D02*
X0278791Y0137052D01*
X0249091Y0137052D01*
X0249091Y0120852D02*
X0248559Y0120547D01*
X0249091Y0120852D02*
X0260791Y0120852D01*
X0248559Y0107752D02*
X0248191Y0107352D01*
X0245491Y0107352D01*
X0242791Y0104652D01*
X0242791Y0095652D01*
X0316591Y0021852D01*
X0340891Y0021852D01*
X0234691Y0098352D02*
X0229291Y0092952D01*
X0213991Y0092952D01*
X0210391Y0096552D01*
X0218491Y0107352D02*
X0225691Y0107352D01*
X0225724Y0107752D01*
X0226591Y0110052D02*
X0225724Y0110311D01*
X0226591Y0110052D02*
X0229291Y0110052D01*
X0231091Y0108252D01*
X0234691Y0110052D02*
X0234691Y0098352D01*
X0234691Y0110052D02*
X0229291Y0115452D01*
X0226591Y0115452D01*
X0225724Y0115429D01*
X0225724Y0117988D02*
X0226591Y0118152D01*
X0231091Y0118152D01*
X0231991Y0117252D01*
X0233791Y0117252D01*
X0239191Y0111852D01*
X0233791Y0120852D02*
X0226591Y0120852D01*
X0225724Y0120547D01*
X0220291Y0114552D02*
X0222091Y0112752D01*
X0225691Y0112752D01*
X0225724Y0112870D01*
D15*
X0220291Y0114552D03*
X0218491Y0107352D03*
X0210391Y0096552D03*
X0231091Y0108252D03*
X0239191Y0111852D03*
X0233791Y0120852D03*
X0249091Y0137052D03*
X0249091Y0142452D03*
X0247291Y0149652D03*
X0236491Y0149652D03*
X0242791Y0181152D03*
X0253591Y0184752D03*
X0257191Y0181152D03*
X0234691Y0188352D03*
X0231091Y0195552D03*
X0219391Y0191952D03*
X0219391Y0186552D03*
X0245491Y0198252D03*
X0287791Y0176652D03*
X0314791Y0132552D03*
X0321091Y0116352D03*
X0329191Y0108252D03*
X0276991Y0100152D03*
X0261691Y0104652D03*
X0260791Y0120852D03*
X0250891Y0082152D03*
X0182491Y0052452D03*
X0178891Y0059652D03*
X0159991Y0061452D03*
X0163591Y0080352D03*
X0150091Y0092952D03*
X0167191Y0101952D03*
X0172591Y0101952D03*
X0163591Y0116352D03*
X0118591Y0106452D03*
X0114991Y0114552D03*
X0111391Y0121752D03*
X0100591Y0112752D03*
X0087991Y0112752D03*
X0082591Y0112752D03*
X0077191Y0112752D03*
X0059191Y0125352D03*
X0050191Y0125352D03*
X0076291Y0131652D03*
X0083491Y0164052D03*
X0060091Y0174852D03*
X0049291Y0178452D03*
X0112291Y0191952D03*
X0118591Y0195552D03*
X0129391Y0186552D03*
X0118591Y0179352D03*
X0131191Y0169452D03*
X0123991Y0164052D03*
X0120391Y0167652D03*
X0120391Y0160452D03*
X0140191Y0171252D03*
X0145591Y0165852D03*
X0152791Y0173952D03*
X0140191Y0176652D03*
X0142891Y0157752D03*
X0163591Y0181152D03*
X0143791Y0237852D03*
X0132991Y0254052D03*
X0128491Y0256752D03*
X0129391Y0272952D03*
X0152791Y0281952D03*
X0156391Y0266652D03*
X0161791Y0266652D03*
X0212191Y0269352D03*
X0215791Y0278352D03*
X0219391Y0281952D03*
X0233791Y0281052D03*
X0232891Y0287352D03*
X0234691Y0273852D03*
X0240991Y0274752D03*
X0234691Y0263952D03*
X0274291Y0266652D03*
X0044791Y0092952D03*
X0032191Y0088452D03*
X0036691Y0076752D03*
X0330991Y0057852D03*
M02*
