%
M48
M72
T01C0.02400
T02C0.03600
%
T01
X36691Y76752
X32191Y88452
X44791Y92952
X77191Y112752
X82591Y112752
X87991Y112752
X100591Y112752
X111391Y121752
X114991Y114552
X118591Y106452
X150091Y92952
X163591Y80352
X159991Y61452
X178891Y59652
X182491Y52452
X210391Y96552
X218491Y107352
X220291Y114552
X231091Y108252
X239191Y111852
X233791Y120852
X249091Y137052
X249091Y142452
X247291Y149652
X236491Y149652
X242791Y181152
X253591Y184752
X257191Y181152
X234691Y188352
X231091Y195552
X219391Y191952
X219391Y186552
X245491Y198252
X287791Y176652
X314791Y132552
X321091Y116352
X329191Y108252
X276991Y100152
X261691Y104652
X260791Y120852
X250891Y82152
X172591Y101952
X167191Y101952
X163591Y116352
X142891Y157752
X145591Y165852
X140191Y171252
X140191Y176652
X131191Y169452
X123991Y164052
X120391Y167652
X120391Y160452
X118591Y179352
X129391Y186552
X118591Y195552
X112291Y191952
X83491Y164052
X60091Y174852
X49291Y178452
X76291Y131652
X59191Y125352
X50191Y125352
X152791Y173952
X163591Y181152
X143791Y237852
X132991Y254052
X128491Y256752
X129391Y272952
X152791Y281952
X156391Y266652
X161791Y266652
X212191Y269352
X215791Y278352
X219391Y281952
X233791Y281052
X232891Y287352
X234691Y273852
X240991Y274752
X234691Y263952
X274291Y266652
X330991Y57852
T02
X339031Y56394
X349031Y56394
X349031Y66394
X339031Y66394
X339031Y46394
X349031Y46394
X349031Y36394
X339031Y36394
X339031Y26394
X349031Y26394
X348323Y104110
X338323Y104110
X338323Y114110
X348323Y114110
X348323Y124110
X338323Y124110
X338323Y134110
X348323Y134110
X348323Y144110
X338323Y144110
X337850Y179268
X337850Y189268
X337850Y199268
X337850Y209268
X337850Y219268
X347850Y219268
X347850Y209268
X347850Y199268
X347850Y189268
X347850Y179268
X347299Y252417
X337299Y252417
X337299Y262417
X347299Y262417
X347299Y272417
X337299Y272417
X337299Y282417
X347299Y282417
X347299Y292417
X337299Y292417
X219465Y71394
X209465Y71394
X209583Y52772
X219583Y52772
X219189Y34465
X209189Y34465
X197693Y15764
X187693Y15764
X174307Y33520
X164307Y33520
X164465Y51906
X174465Y51906
X174622Y71512
X164622Y71512
X38362Y83362
X28362Y83362
X28362Y93362
X38362Y93362
X38362Y103362
X28362Y103362
X28362Y113362
X38362Y113362
X38362Y123362
X28362Y123362
X27811Y169465
X27811Y179465
X27811Y189465
X27811Y199465
X27811Y209465
X37811Y209465
X37811Y199465
X37811Y189465
X37811Y179465
X37811Y169465
M30
