%
M48
M72
T01C0.0240
T02C0.0360
T03C0.0440
%
T01
X5050Y7660
X10270Y5590
X10630Y8290
X19090Y12610
X20530Y12250
X23230Y14770
X22600Y15400
X27010Y19180
X22870Y21160
X21790Y20440
X21430Y20800
X18010Y21970
X17650Y21250
X14680Y19360
X16660Y16660
X10630Y16210
X14050Y22330
X10720Y26830
X10270Y27190
X9550Y27910
X13780Y29350
X19720Y26470
X25210Y24580
X25570Y25300
X30970Y23230
X32050Y20350
X28180Y14950
X33130Y6884
T02
X30840Y6899
X29840Y6899
X29840Y5899
X30840Y5899
X28840Y5899
X27840Y5899
X26840Y5899
X26840Y6899
X27840Y6899
X28840Y6899
X28840Y12631
X27840Y12631
X26840Y12631
X26840Y13631
X27840Y13631
X28840Y13631
X29840Y13631
X30840Y13631
X30840Y12631
X29840Y12631
X29840Y20072
X30840Y20072
X30840Y21072
X29840Y21072
X28840Y21072
X27840Y21072
X26840Y21072
X26840Y20072
X27840Y20072
X28840Y20072
X15092Y20072
X14092Y20072
X13092Y20072
X12092Y20072
X11092Y20072
X11092Y21072
X12092Y21072
X13092Y21072
X14092Y21072
X15092Y21072
X15092Y6899
X15092Y5899
X14092Y5899
X13092Y5899
X12092Y5899
X11092Y5899
X11092Y6899
X12092Y6899
X13092Y6899
X14092Y6899
T03
X1360Y3958
X5297Y1202
X9076Y4037
X13013Y1281
X17069Y3998
X21006Y1242
X24903Y4037
X28840Y1281
X32817Y3998
X36754Y1242
X36754Y9194
X32817Y11163
X28840Y9234
X24903Y11202
X21006Y9194
X17069Y11163
X13013Y9234
X9076Y11202
X5297Y9155
X1360Y11124
X5297Y15848
X9116Y18643
X13053Y15887
X17108Y18604
X21045Y15848
X24943Y18643
X28880Y15887
X32856Y18604
X36793Y15848
X36754Y23368
X32817Y26124
X32817Y28604
X28880Y30533
X24903Y28643
X24903Y26163
X21006Y23368
X17069Y26124
X17069Y28604
X21045Y30494
X13053Y30533
X9076Y28643
X9076Y26163
X5297Y23328
X1360Y26084
X1360Y28565
X5297Y30494
X13013Y23407
X1360Y18604
X28840Y23407
X36793Y30494
M30
