G75*
%MOIN*%
%OFA0B0*%
%FSLAX25Y25*%
%IPPOS*%
%LPD*%
%AMOC8*
5,1,8,0,0,1.08239X$1,22.5*
%
%ADD10C,0.00000*%
%ADD11OC8,0.05600*%
%ADD12OC8,0.10000*%
%ADD13C,0.01000*%
%ADD14C,0.04000*%
D10*
X0001000Y0001000D02*
X0001000Y0315961D01*
X0394819Y0315961D01*
X0394701Y0001000D01*
X0001000Y0001000D01*
D11*
X0110921Y0058992D03*
X0120921Y0058992D03*
X0120921Y0068992D03*
X0110921Y0068992D03*
X0130921Y0068992D03*
X0140921Y0068992D03*
X0140921Y0058992D03*
X0130921Y0058992D03*
X0150921Y0058992D03*
X0150921Y0068992D03*
X0268402Y0068992D03*
X0278402Y0068992D03*
X0288402Y0068992D03*
X0298402Y0068992D03*
X0308402Y0068992D03*
X0308402Y0058992D03*
X0298402Y0058992D03*
X0288402Y0058992D03*
X0278402Y0058992D03*
X0268402Y0058992D03*
X0268402Y0126315D03*
X0278402Y0126315D03*
X0288402Y0126315D03*
X0298402Y0126315D03*
X0308402Y0126315D03*
X0308402Y0136315D03*
X0298402Y0136315D03*
X0288402Y0136315D03*
X0278402Y0136315D03*
X0268402Y0136315D03*
X0268402Y0200724D03*
X0278402Y0200724D03*
X0288402Y0200724D03*
X0298402Y0200724D03*
X0308402Y0200724D03*
X0308402Y0210724D03*
X0298402Y0210724D03*
X0288402Y0210724D03*
X0278402Y0210724D03*
X0268402Y0210724D03*
X0150921Y0210724D03*
X0140921Y0210724D03*
X0130921Y0210724D03*
X0120921Y0210724D03*
X0110921Y0210724D03*
X0110921Y0200724D03*
X0120921Y0200724D03*
X0130921Y0200724D03*
X0140921Y0200724D03*
X0150921Y0200724D03*
D12*
X0171079Y0186039D03*
X0210449Y0158480D03*
X0249425Y0186433D03*
X0288795Y0158874D03*
X0328559Y0186039D03*
X0367929Y0158480D03*
X0328165Y0111630D03*
X0367535Y0091945D03*
X0328165Y0039976D03*
X0367535Y0012417D03*
X0288402Y0012811D03*
X0249031Y0040370D03*
X0210055Y0012417D03*
X0170685Y0039976D03*
X0130134Y0012811D03*
X0090764Y0040370D03*
X0052969Y0012024D03*
X0013598Y0039583D03*
X0052969Y0091551D03*
X0090764Y0112024D03*
X0130134Y0092339D03*
X0170685Y0111630D03*
X0210055Y0091945D03*
X0249031Y0112024D03*
X0288402Y0092339D03*
X0130528Y0158874D03*
X0091157Y0186433D03*
X0052969Y0158480D03*
X0013598Y0186039D03*
X0052969Y0233283D03*
X0090764Y0261630D03*
X0090764Y0286433D03*
X0052969Y0304937D03*
X0013598Y0285646D03*
X0013598Y0260843D03*
X0130134Y0234071D03*
X0170685Y0261236D03*
X0170685Y0286039D03*
X0210449Y0304937D03*
X0249031Y0286433D03*
X0249031Y0261630D03*
X0210055Y0233677D03*
X0288402Y0234071D03*
X0328165Y0261236D03*
X0328165Y0286039D03*
X0288795Y0305331D03*
X0367929Y0304937D03*
X0367535Y0233677D03*
X0130528Y0305331D03*
X0013598Y0111236D03*
D13*
X0012700Y0111700D01*
X0006400Y0118000D01*
X0006400Y0188200D01*
X0010900Y0192700D01*
X0031600Y0192700D01*
X0107200Y0268300D01*
X0102700Y0271900D02*
X0024400Y0271900D01*
X0013600Y0261100D01*
X0013598Y0260843D01*
X0019900Y0279100D02*
X0013600Y0285400D01*
X0013598Y0285646D01*
X0019900Y0279100D02*
X0095500Y0279100D01*
X0130528Y0305331D02*
X0130600Y0306100D01*
X0141400Y0295300D01*
X0141400Y0291700D01*
X0046000Y0196300D01*
X0046000Y0075700D01*
X0115300Y0006400D01*
X0133300Y0006400D01*
X0136900Y0010000D01*
X0136900Y0015400D01*
X0121600Y0030700D01*
X0121600Y0058600D01*
X0120921Y0058992D01*
X0130600Y0059500D02*
X0130921Y0058992D01*
X0130600Y0059500D02*
X0130600Y0063100D01*
X0125200Y0068500D01*
X0125200Y0088300D01*
X0123400Y0090100D01*
X0123400Y0161200D01*
X0174700Y0212500D01*
X0176500Y0212500D01*
X0178300Y0219700D02*
X0111700Y0153100D01*
X0111700Y0075700D01*
X0102700Y0066700D01*
X0102700Y0055900D01*
X0099100Y0065800D02*
X0099100Y0044200D01*
X0129700Y0013600D01*
X0130134Y0012811D01*
X0162100Y0030419D02*
X0277300Y0030419D01*
X0304300Y0058600D01*
X0304300Y0061300D01*
X0307000Y0064000D01*
X0309700Y0064000D01*
X0321400Y0075700D01*
X0321400Y0125200D01*
X0327700Y0131500D01*
X0327700Y0185500D01*
X0328559Y0186039D01*
X0320500Y0203500D02*
X0320500Y0127000D01*
X0308800Y0115300D01*
X0308800Y0069400D01*
X0308402Y0068992D01*
X0304300Y0068500D02*
X0304300Y0113500D01*
X0315100Y0124300D01*
X0315100Y0167500D01*
X0283600Y0199000D01*
X0283600Y0212500D01*
X0325900Y0254800D01*
X0331300Y0254800D01*
X0334900Y0258400D01*
X0334900Y0279100D01*
X0328600Y0285400D01*
X0328165Y0286039D01*
X0328165Y0261236D02*
X0327700Y0261100D01*
X0312400Y0245800D01*
X0252100Y0245800D01*
X0248500Y0244000D02*
X0248500Y0261100D01*
X0249031Y0261630D01*
X0255700Y0253000D02*
X0255700Y0272800D01*
X0288100Y0305200D01*
X0288795Y0305331D01*
X0248500Y0244000D02*
X0260200Y0232300D01*
X0260594Y0197087D01*
X0268300Y0188200D01*
X0273475Y0188200D01*
X0311725Y0149556D01*
X0313300Y0125200D01*
X0298900Y0110800D01*
X0298900Y0069400D01*
X0298402Y0068992D01*
X0297100Y0064000D02*
X0299800Y0064000D01*
X0304300Y0068500D01*
X0297100Y0064000D02*
X0293500Y0060400D01*
X0293500Y0057700D01*
X0269200Y0033400D01*
X0167500Y0033400D01*
X0162100Y0038800D01*
X0162100Y0054100D01*
X0151300Y0064900D01*
X0151300Y0068500D01*
X0150921Y0068992D01*
X0146800Y0068500D02*
X0146800Y0133300D01*
X0217900Y0204400D01*
X0214300Y0208000D02*
X0141400Y0135100D01*
X0141400Y0069400D01*
X0140921Y0068992D01*
X0146800Y0068500D02*
X0141400Y0063100D01*
X0141400Y0059500D01*
X0140921Y0058992D01*
X0136000Y0057700D02*
X0162100Y0030419D01*
X0170685Y0039976D02*
X0170200Y0040600D01*
X0163900Y0046900D01*
X0163900Y0114400D01*
X0185500Y0136000D01*
X0268300Y0136000D01*
X0268402Y0136315D01*
X0269200Y0130600D02*
X0190000Y0130600D01*
X0171100Y0111700D01*
X0170685Y0111630D01*
X0190900Y0126100D02*
X0268300Y0126100D01*
X0268402Y0126315D01*
X0269200Y0130600D02*
X0274600Y0136000D01*
X0278200Y0136000D01*
X0278402Y0136315D01*
X0282700Y0143200D02*
X0250300Y0175600D01*
X0250300Y0186400D01*
X0249425Y0186433D01*
X0256600Y0181900D02*
X0256600Y0196300D01*
X0191800Y0261100D01*
X0171100Y0261100D01*
X0170685Y0261236D01*
X0197200Y0264700D02*
X0197200Y0291700D01*
X0209800Y0304300D01*
X0210449Y0304937D01*
X0171100Y0285400D02*
X0170685Y0286039D01*
X0171100Y0285400D02*
X0258400Y0198100D01*
X0258400Y0195400D01*
X0267400Y0186400D01*
X0271000Y0186400D01*
X0307900Y0149500D01*
X0307900Y0136900D01*
X0308402Y0136315D01*
X0298402Y0136315D02*
X0298000Y0136900D01*
X0298000Y0140500D01*
X0256600Y0181900D01*
X0270100Y0191800D02*
X0278200Y0199900D01*
X0278402Y0200724D01*
X0288402Y0200724D02*
X0289000Y0200800D01*
X0292600Y0200800D01*
X0298000Y0206200D01*
X0299800Y0206200D01*
X0304300Y0210700D01*
X0304300Y0212500D01*
X0334787Y0242987D01*
X0373262Y0242987D01*
X0378662Y0237587D01*
X0378662Y0121600D01*
X0315887Y0060006D01*
X0315100Y0029800D01*
X0291700Y0006400D01*
X0216100Y0006400D01*
X0210700Y0011800D01*
X0210055Y0012417D01*
X0268402Y0058992D02*
X0268300Y0059500D01*
X0205300Y0122500D01*
X0232300Y0147700D02*
X0232300Y0213400D01*
X0212500Y0233200D01*
X0210700Y0233200D01*
X0210055Y0233677D01*
X0203500Y0226900D02*
X0120700Y0226900D01*
X0059500Y0165700D01*
X0059500Y0085600D01*
X0050500Y0076600D01*
X0091000Y0060400D02*
X0091000Y0040600D01*
X0090764Y0040370D01*
X0091000Y0060400D02*
X0098200Y0067600D01*
X0098200Y0194500D01*
X0110800Y0207100D01*
X0110800Y0210700D01*
X0110921Y0210724D01*
X0140500Y0223300D02*
X0204400Y0223300D01*
X0226000Y0201700D01*
X0226000Y0154000D01*
X0281800Y0149500D02*
X0292600Y0138700D01*
X0292600Y0096400D01*
X0289000Y0092800D01*
X0288402Y0092339D01*
X0281800Y0089200D02*
X0281800Y0123400D01*
X0282700Y0124300D01*
X0282700Y0143200D01*
X0281800Y0089200D02*
X0288100Y0082900D01*
X0288100Y0069400D01*
X0288402Y0068992D01*
X0308402Y0058992D02*
X0308800Y0059500D01*
X0359819Y0112881D01*
X0361000Y0226900D01*
X0367300Y0233200D01*
X0367535Y0233677D01*
X0370000Y0240400D02*
X0374500Y0235900D01*
X0374500Y0122500D01*
X0313300Y0061300D01*
X0313300Y0037900D01*
X0289000Y0013600D01*
X0288402Y0012811D01*
X0331300Y0068838D02*
X0332481Y0072719D01*
X0383612Y0121487D01*
X0383218Y0289282D01*
X0368200Y0304300D01*
X0367929Y0304937D01*
X0370000Y0240400D02*
X0352000Y0240400D01*
X0317800Y0206200D01*
X0307900Y0206200D01*
X0302500Y0200800D01*
X0298900Y0200800D01*
X0298402Y0200724D01*
X0288402Y0210724D02*
X0289000Y0211600D01*
X0309700Y0232300D01*
X0228700Y0211600D02*
X0218800Y0211600D01*
X0203500Y0226900D01*
X0180100Y0219700D02*
X0178300Y0219700D01*
X0146800Y0193600D02*
X0146800Y0190900D01*
X0109900Y0154000D01*
X0109900Y0076600D01*
X0099100Y0065800D01*
X0106300Y0082900D02*
X0106300Y0162100D01*
X0130528Y0158874D02*
X0130600Y0159400D01*
X0137800Y0166600D01*
X0166600Y0166600D01*
X0130921Y0068992D02*
X0131500Y0068500D01*
X0131500Y0064900D01*
X0136000Y0060400D01*
X0136000Y0057700D01*
X0030700Y0186400D02*
X0013600Y0186400D01*
X0013598Y0186039D01*
X0030700Y0186400D02*
X0137800Y0293500D01*
D14*
X0137800Y0293500D03*
X0107200Y0268300D03*
X0102700Y0271900D03*
X0095500Y0279100D03*
X0140500Y0223300D03*
X0176500Y0212500D03*
X0180100Y0219700D03*
X0146800Y0193600D03*
X0166600Y0166600D03*
X0190900Y0126100D03*
X0205300Y0122500D03*
X0232300Y0147700D03*
X0226000Y0154000D03*
X0270100Y0191800D03*
X0228700Y0211600D03*
X0217900Y0204400D03*
X0214300Y0208000D03*
X0252100Y0245800D03*
X0255700Y0253000D03*
X0309700Y0232300D03*
X0320500Y0203500D03*
X0281800Y0149500D03*
X0331300Y0068838D03*
X0106300Y0082900D03*
X0102700Y0055900D03*
X0050500Y0076600D03*
X0106300Y0162100D03*
X0197200Y0264700D03*
M02*
