G75*
%MOIN*%
%OFA0B0*%
%FSLAX25Y25*%
%IPPOS*%
%LPD*%
%AMOC8*
5,1,8,0,0,1.08239X$1,22.5*
%
%ADD10C,0.00000*%
%ADD11OC8,0.05600*%
%ADD12OC8,0.10000*%
%ADD13C,0.01000*%
%ADD14C,0.04000*%
D10*
X0001000Y0001000D02*
X0001000Y0315961D01*
X0394819Y0315961D01*
X0394701Y0001000D01*
X0001000Y0001000D01*
D11*
X0110921Y0058992D03*
X0120921Y0058992D03*
X0120921Y0068992D03*
X0110921Y0068992D03*
X0130921Y0068992D03*
X0140921Y0068992D03*
X0140921Y0058992D03*
X0130921Y0058992D03*
X0150921Y0058992D03*
X0150921Y0068992D03*
X0268402Y0068992D03*
X0278402Y0068992D03*
X0288402Y0068992D03*
X0298402Y0068992D03*
X0308402Y0068992D03*
X0308402Y0058992D03*
X0298402Y0058992D03*
X0288402Y0058992D03*
X0278402Y0058992D03*
X0268402Y0058992D03*
X0268402Y0126315D03*
X0278402Y0126315D03*
X0288402Y0126315D03*
X0298402Y0126315D03*
X0308402Y0126315D03*
X0308402Y0136315D03*
X0298402Y0136315D03*
X0288402Y0136315D03*
X0278402Y0136315D03*
X0268402Y0136315D03*
X0268402Y0200724D03*
X0278402Y0200724D03*
X0288402Y0200724D03*
X0298402Y0200724D03*
X0308402Y0200724D03*
X0308402Y0210724D03*
X0298402Y0210724D03*
X0288402Y0210724D03*
X0278402Y0210724D03*
X0268402Y0210724D03*
X0150921Y0210724D03*
X0140921Y0210724D03*
X0130921Y0210724D03*
X0120921Y0210724D03*
X0110921Y0210724D03*
X0110921Y0200724D03*
X0120921Y0200724D03*
X0130921Y0200724D03*
X0140921Y0200724D03*
X0150921Y0200724D03*
D12*
X0171079Y0186039D03*
X0210449Y0158480D03*
X0249425Y0186433D03*
X0288795Y0158874D03*
X0328559Y0186039D03*
X0367929Y0158480D03*
X0328165Y0111630D03*
X0367535Y0091945D03*
X0328165Y0039976D03*
X0367535Y0012417D03*
X0288402Y0012811D03*
X0249031Y0040370D03*
X0210055Y0012417D03*
X0170685Y0039976D03*
X0130134Y0012811D03*
X0090764Y0040370D03*
X0052969Y0012024D03*
X0013598Y0039583D03*
X0052969Y0091551D03*
X0090764Y0112024D03*
X0130134Y0092339D03*
X0170685Y0111630D03*
X0210055Y0091945D03*
X0249031Y0112024D03*
X0288402Y0092339D03*
X0130528Y0158874D03*
X0091157Y0186433D03*
X0052969Y0158480D03*
X0013598Y0186039D03*
X0052969Y0233283D03*
X0090764Y0261630D03*
X0090764Y0286433D03*
X0052969Y0304937D03*
X0013598Y0285646D03*
X0013598Y0260843D03*
X0130134Y0234071D03*
X0170685Y0261236D03*
X0170685Y0286039D03*
X0210449Y0304937D03*
X0249031Y0286433D03*
X0249031Y0261630D03*
X0210055Y0233677D03*
X0288402Y0234071D03*
X0328165Y0261236D03*
X0328165Y0286039D03*
X0288795Y0305331D03*
X0367929Y0304937D03*
X0367535Y0233677D03*
X0130528Y0305331D03*
X0013598Y0111236D03*
D13*
X0046000Y0089200D02*
X0046000Y0151300D01*
X0052300Y0157600D01*
X0052969Y0158480D01*
X0091157Y0186433D02*
X0091000Y0187300D01*
X0109000Y0205300D01*
X0111700Y0205300D01*
X0115300Y0208900D01*
X0115300Y0211600D01*
X0118900Y0215200D01*
X0122500Y0215200D01*
X0126100Y0211600D01*
X0130600Y0211600D01*
X0130921Y0210724D01*
X0135100Y0212500D02*
X0114400Y0233200D01*
X0053200Y0233200D01*
X0052969Y0233283D01*
X0046000Y0222400D02*
X0046000Y0298000D01*
X0052300Y0304300D01*
X0052969Y0304937D01*
X0090764Y0286433D02*
X0091000Y0286300D01*
X0091000Y0278200D01*
X0104500Y0264700D01*
X0109000Y0264700D01*
X0150400Y0223300D01*
X0150400Y0211600D01*
X0150921Y0210724D01*
X0149500Y0205300D02*
X0211600Y0205300D01*
X0221500Y0195794D01*
X0271900Y0195794D01*
X0281800Y0185500D01*
X0281800Y0149500D01*
X0289000Y0158500D02*
X0292600Y0154900D01*
X0292600Y0136000D01*
X0298000Y0130600D01*
X0298000Y0127000D01*
X0298402Y0126315D01*
X0293500Y0127900D02*
X0293500Y0096400D01*
X0295300Y0094600D01*
X0295300Y0072100D01*
X0293500Y0070300D01*
X0293500Y0057700D01*
X0297100Y0054100D01*
X0299800Y0054100D01*
X0304300Y0058600D01*
X0304300Y0061300D01*
X0307000Y0064000D01*
X0309700Y0064000D01*
X0321400Y0075700D01*
X0321400Y0114400D01*
X0325000Y0118000D01*
X0342100Y0118000D01*
X0367300Y0092800D01*
X0367535Y0091945D01*
X0334900Y0104500D02*
X0328600Y0110800D01*
X0328165Y0111630D01*
X0334900Y0104500D02*
X0334900Y0037000D01*
X0323369Y0026650D01*
X0129869Y0026650D01*
X0102700Y0061300D01*
X0102700Y0084700D01*
X0104500Y0086500D01*
X0108100Y0086500D01*
X0120700Y0073900D01*
X0120700Y0069400D01*
X0120921Y0068992D01*
X0115300Y0068500D02*
X0120700Y0063100D01*
X0133300Y0063100D01*
X0136000Y0060400D01*
X0136000Y0057700D01*
X0162494Y0029238D01*
X0319994Y0029238D01*
X0327700Y0039700D01*
X0328165Y0039976D01*
X0298900Y0059500D02*
X0298900Y0063100D01*
X0303400Y0067600D01*
X0303400Y0218800D01*
X0289000Y0233200D01*
X0288402Y0234071D01*
X0278200Y0229544D02*
X0261887Y0246250D01*
X0261887Y0258906D01*
X0252100Y0268300D01*
X0107200Y0268300D01*
X0102700Y0271900D02*
X0251200Y0271900D01*
X0264081Y0260987D01*
X0264081Y0248331D01*
X0296819Y0214806D01*
X0298000Y0211600D01*
X0298402Y0210724D01*
X0307900Y0211600D02*
X0308402Y0210724D01*
X0307900Y0211600D02*
X0307900Y0224200D01*
X0253000Y0279100D01*
X0095500Y0279100D01*
X0090764Y0261630D02*
X0091000Y0261100D01*
X0140500Y0211600D01*
X0140921Y0210724D01*
X0135100Y0212500D02*
X0135100Y0192700D01*
X0205300Y0122500D01*
X0209800Y0112600D02*
X0209800Y0092800D01*
X0210055Y0091945D01*
X0209800Y0112600D02*
X0131500Y0190900D01*
X0131500Y0199900D01*
X0130921Y0200724D01*
X0140921Y0200724D02*
X0141400Y0200800D01*
X0145000Y0200800D01*
X0149500Y0205300D01*
X0150921Y0200724D02*
X0150400Y0199900D01*
X0147700Y0199900D01*
X0143200Y0195400D01*
X0143200Y0191800D01*
X0164800Y0170200D01*
X0240400Y0170200D01*
X0273700Y0136900D01*
X0273700Y0135100D01*
X0278200Y0130600D01*
X0290800Y0130600D01*
X0293500Y0127900D01*
X0288402Y0126315D02*
X0288100Y0126100D01*
X0284500Y0126100D01*
X0280000Y0121600D01*
X0263800Y0121600D01*
X0227800Y0157600D01*
X0210700Y0157600D01*
X0210449Y0158480D01*
X0221500Y0166600D02*
X0166600Y0166600D01*
X0171100Y0185500D02*
X0171079Y0186039D01*
X0171100Y0185500D02*
X0235900Y0185500D01*
X0284500Y0136900D01*
X0288100Y0136900D01*
X0288402Y0136315D01*
X0278200Y0127000D02*
X0273700Y0127000D01*
X0269200Y0131500D01*
X0256600Y0131500D01*
X0221500Y0166600D01*
X0226000Y0154000D02*
X0226000Y0126100D01*
X0272800Y0079300D01*
X0272800Y0068500D01*
X0278200Y0063100D01*
X0278200Y0059500D01*
X0278402Y0058992D01*
X0288100Y0059500D02*
X0288402Y0058992D01*
X0288100Y0059500D02*
X0288100Y0063100D01*
X0282700Y0068500D01*
X0282700Y0088300D01*
X0232300Y0138700D01*
X0232300Y0147700D01*
X0190900Y0126100D02*
X0172900Y0126100D01*
X0132400Y0085600D01*
X0111700Y0085600D01*
X0109000Y0088300D01*
X0059500Y0088300D01*
X0055900Y0084700D01*
X0050500Y0084700D01*
X0046000Y0089200D01*
X0052969Y0091551D02*
X0053200Y0091900D01*
X0110800Y0149500D01*
X0110800Y0199900D01*
X0110921Y0200724D01*
X0115300Y0201700D02*
X0115300Y0136900D01*
X0091000Y0112600D01*
X0090764Y0112024D01*
X0121600Y0100900D02*
X0129700Y0092800D01*
X0130134Y0092339D01*
X0121600Y0100900D02*
X0121600Y0199900D01*
X0120921Y0200724D01*
X0115300Y0201700D02*
X0120700Y0207100D01*
X0120700Y0210700D01*
X0120921Y0210724D01*
X0140500Y0223300D02*
X0130600Y0233200D01*
X0130134Y0234071D01*
X0176500Y0244000D02*
X0176500Y0212500D01*
X0180100Y0219700D02*
X0216100Y0219700D01*
X0253000Y0256600D01*
X0257500Y0256600D01*
X0259300Y0254800D01*
X0259300Y0245350D01*
X0272800Y0231850D01*
X0272800Y0208900D01*
X0269200Y0205300D01*
X0269200Y0200800D01*
X0268402Y0200724D01*
X0270100Y0191800D02*
X0253000Y0191800D01*
X0251200Y0193600D01*
X0146800Y0193600D01*
X0106300Y0162100D02*
X0046000Y0222400D01*
X0137800Y0293500D02*
X0251200Y0293500D01*
X0309700Y0235000D01*
X0309700Y0232300D01*
X0320500Y0215200D02*
X0249400Y0286300D01*
X0249031Y0286433D01*
X0255700Y0253000D02*
X0255700Y0244000D01*
X0217900Y0206200D01*
X0217900Y0204400D01*
X0214300Y0208000D02*
X0252100Y0245800D01*
X0278200Y0229544D02*
X0278200Y0211600D01*
X0278402Y0210724D01*
X0268402Y0210724D02*
X0268300Y0211600D01*
X0228700Y0211600D01*
X0176500Y0244000D02*
X0197200Y0264700D01*
X0308402Y0200724D02*
X0308800Y0199900D01*
X0335800Y0199900D01*
X0374500Y0161200D01*
X0374500Y0019000D01*
X0368200Y0012700D01*
X0367535Y0012417D01*
X0298900Y0059500D02*
X0298402Y0058992D01*
X0278402Y0068992D02*
X0278200Y0069400D01*
X0278200Y0082900D01*
X0249400Y0111700D01*
X0249031Y0112024D01*
X0278402Y0126315D02*
X0278200Y0127000D01*
X0308402Y0126315D02*
X0308800Y0127000D01*
X0336700Y0127000D01*
X0367300Y0157600D01*
X0367929Y0158480D01*
X0320500Y0203500D02*
X0320500Y0215200D01*
X0288795Y0158874D02*
X0289000Y0158500D01*
X0268402Y0068992D02*
X0268300Y0068500D01*
X0268300Y0064900D01*
X0249400Y0046000D01*
X0249400Y0040600D01*
X0249031Y0040370D01*
X0242763Y0032219D02*
X0295075Y0032219D01*
X0331300Y0068838D01*
X0242763Y0032219D02*
X0215988Y0058600D01*
X0151300Y0058600D01*
X0150921Y0058992D01*
X0115300Y0068500D02*
X0111700Y0068500D01*
X0110921Y0068992D01*
X0106300Y0067600D02*
X0110800Y0063100D01*
X0110800Y0059500D01*
X0110921Y0058992D01*
X0102700Y0055900D02*
X0096400Y0055900D01*
X0053200Y0012700D01*
X0052969Y0012024D01*
X0013598Y0039583D02*
X0013600Y0039700D01*
X0050500Y0076600D01*
X0106300Y0082900D02*
X0106300Y0067600D01*
D14*
X0102700Y0055900D03*
X0106300Y0082900D03*
X0050500Y0076600D03*
X0106300Y0162100D03*
X0146800Y0193600D03*
X0176500Y0212500D03*
X0180100Y0219700D03*
X0214300Y0208000D03*
X0217900Y0204400D03*
X0228700Y0211600D03*
X0252100Y0245800D03*
X0255700Y0253000D03*
X0309700Y0232300D03*
X0320500Y0203500D03*
X0270100Y0191800D03*
X0226000Y0154000D03*
X0232300Y0147700D03*
X0205300Y0122500D03*
X0190900Y0126100D03*
X0166600Y0166600D03*
X0140500Y0223300D03*
X0107200Y0268300D03*
X0102700Y0271900D03*
X0095500Y0279100D03*
X0137800Y0293500D03*
X0197200Y0264700D03*
X0281800Y0149500D03*
X0331300Y0068838D03*
M02*
